<?xml version="1.0" encoding="utf-8"?>
<!-- Generator: Adobe Illustrator 25.4.1, SVG Export Plug-In . SVG Version: 6.00 Build 0)  -->
<svg version="1.1" xmlns="http://www.w3.org/2000/svg" xmlns:xlink="http://www.w3.org/1999/xlink" x="0px" y="0px"
	 viewBox="0 0 678.15 727.03" style="enable-background:new 0 0 678.15 727.03;" xml:space="preserve">
<style type="text/css">
	.st0{fill:#FFFFFF;}
	.st1{fill:#41BDDB;}
</style>
<g id="Capa_1">
	<rect width="678.15" height="727.03"/>
	<g>
		<g>
			<path class="st0" d="M189.91,405.93l21.75-0.02l-31.76-86.16l-12.73,0.01l-12.73-0.01l-31.76,86.16l21.75,0.02l5.88-15.96h33.71
				L189.91,405.93z M156.24,373.89l10.93-29.65l10.93,29.65H156.24z"/>
			<polygon class="st0" points="250.21,319.77 250.21,347.6 222.83,319.77 214.11,319.77 214.11,358.55 222.83,358.55 
				222.83,330.72 250.21,358.55 258.93,358.55 258.93,319.77 			"/>
			<path class="st0" d="M319.35,358.55h8.71l-17.3-38.78h-4.05h-4.66h-4.05l-17.3,38.78h8.71l3.56-7.98h22.83L319.35,358.55z
				 M296.22,343.27l8.15-18.28l8.15,18.28H296.22z"/>
			<rect x="491.9" y="319.77" class="st0" width="8.71" height="38.78"/>
			<polygon class="st0" points="363.96,319.77 352.41,319.77 343.69,319.77 334.14,319.77 325.42,319.77 325.42,327.07 
				325.42,339.16 334.14,339.16 334.14,327.07 343.69,327.07 343.69,358.55 352.41,358.55 352.41,327.07 363.96,327.07 
				363.96,339.16 372.67,339.16 372.67,327.07 372.67,319.77 			"/>
			<rect x="263.18" y="338.61" class="st0" width="17.08" height="7.3"/>
			<polygon class="st0" points="475.94,319.77 475.94,319.77 459.68,332.68 443.42,319.77 443.42,319.77 434.71,319.77 
				434.71,358.55 443.42,358.55 443.42,329.58 455.33,339.03 455.33,358.55 464.04,358.55 464.04,339.03 475.94,329.58 
				475.94,358.55 484.66,358.55 484.66,319.77 			"/>
			<polygon class="st0" points="111.46,358.71 111.46,363.5 49.79,363.5 49.79,377.31 111.46,377.31 111.46,382.09 122.69,382.09 
				122.69,377.31 122.69,363.5 122.69,358.71 			"/>
			<polygon class="st0" points="628.37,363.5 566.7,363.5 566.7,358.71 555.47,358.71 555.47,363.5 555.47,366.81 298.3,366.81 
				298.3,373.99 555.47,373.99 555.47,377.31 555.47,382.09 566.7,382.09 566.7,377.31 628.37,377.31 			"/>
			<rect x="214.11" y="366.81" class="st1" width="84.19" height="7.18"/>
			<g>
				<path class="st0" d="M227.23,386.88v13.8c0,1.26,0.01,2.49,0.03,3.72h8.27l2.17-4.5l0.76-0.12l-0.37,6.08l-0.1,0.12
					c-2.93-0.03-5.64-0.05-8.13-0.05h-4.26c-1.37,0-2.77,0.02-4.21,0.05l-0.07-0.73l2.09-0.63c0.28-0.08,0.44-0.25,0.46-0.53
					c0.01-0.45,0.02-0.96,0.03-1.52c0.01-0.56,0.01-1.18,0.01-1.86v-13.77c0-0.58,0-1.1-0.01-1.56c-0.01-0.46-0.01-0.88-0.03-1.26
					c-0.01-0.29-0.15-0.49-0.41-0.58l-2.1-0.66l-0.03-0.73c1.46,0.05,2.86,0.07,4.21,0.07c1.36,0,2.76-0.02,4.21-0.07l0.07,0.73
					l-2.1,0.63c-0.27,0.07-0.42,0.24-0.44,0.53c-0.01,0.4-0.02,0.97-0.03,1.73C227.23,386.54,227.23,386.91,227.23,386.88z"/>
				<path class="st0" d="M260.19,406.07l-5.96-18.08l-6.23,17.94l-1.71,0.14l-6.79-20.85c-0.18-0.53-0.39-0.94-0.62-1.23
					c-0.23-0.29-0.56-0.49-0.98-0.62l-1.54-0.48l-0.03-0.73c1.11,0.05,2.42,0.07,3.94,0.07c1.37,0,2.92-0.02,4.65-0.07l0.07,0.73
					l-1.6,0.46c-0.24,0.06-0.41,0.14-0.51,0.25c-0.1,0.11-0.15,0.28-0.15,0.49c0,0.23,0.05,0.52,0.16,0.89
					c0.11,0.37,0.25,0.85,0.43,1.45l4.6,14.58l6.3-18.83l1.53-0.12l6.13,19.11l4.79-14.73c0.2-0.65,0.36-1.16,0.48-1.54
					c0.11-0.39,0.17-0.68,0.17-0.88c0-0.2-0.05-0.35-0.15-0.44c-0.1-0.09-0.27-0.16-0.49-0.22l-1.6-0.42l-0.03-0.78
					c1.22,0.05,2.46,0.07,3.72,0.07c1.22,0,2.41-0.02,3.56-0.07l0.07,0.73l-1.71,0.54c-0.34,0.1-0.61,0.26-0.81,0.48
					s-0.39,0.59-0.59,1.12l-7.37,20.9L260.19,406.07z"/>
				<path class="st0" d="M281.96,381.81l7.54,20.76c0.28,0.78,0.54,1.31,0.77,1.59c0.23,0.28,0.56,0.48,0.99,0.62l1.6,0.48
					l0.03,0.73c-1.48-0.03-2.86-0.05-4.13-0.05c-1.29,0-2.81,0.02-4.57,0.05l-0.07-0.73l1.61-0.48c0.23-0.08,0.39-0.17,0.48-0.26
					c0.1-0.1,0.14-0.25,0.14-0.45c0-0.23-0.06-0.52-0.18-0.89c-0.12-0.37-0.29-0.86-0.5-1.47l-1.6-4.55h-8.18l-1.78,4.53
					c-0.24,0.63-0.42,1.14-0.56,1.51c-0.14,0.37-0.2,0.67-0.2,0.88c0,0.19,0.05,0.34,0.16,0.43c0.11,0.1,0.27,0.18,0.48,0.25
					l1.58,0.46l0.03,0.76c-1.61-0.03-2.92-0.05-3.94-0.05s-2.16,0.02-3.41,0.05l-0.08-0.73l1.71-0.53c0.43-0.14,0.75-0.35,0.95-0.63
					c0.2-0.28,0.43-0.72,0.68-1.32l8.67-20.71L281.96,381.81z M276.54,395.61h6.99l-3.31-9.35L276.54,395.61z"/>
				<path class="st0" d="M301.41,393.84l3.93-7.42c0.28-0.54,0.52-1.01,0.71-1.39c0.19-0.39,0.29-0.7,0.29-0.95
					c0-0.35-0.25-0.59-0.75-0.73l-1.53-0.41l-0.03-0.78c1.22,0.05,2.47,0.07,3.75,0.07c1.23,0,2.43-0.02,3.6-0.07l0.07,0.73
					l-1.71,0.54c-0.41,0.12-0.72,0.32-0.94,0.59c-0.22,0.27-0.44,0.61-0.67,1l-5.87,10.47v5.16c0,0.68,0,1.3,0.01,1.85
					c0,0.55,0.01,1.06,0.03,1.51c0.01,0.28,0.21,0.48,0.59,0.58l2.1,0.64l0.03,0.73c-1.58-0.03-3.05-0.05-4.39-0.05
					c-1.38,0-2.84,0.02-4.4,0.05l-0.07-0.73l2.27-0.68c0.28-0.08,0.44-0.25,0.46-0.53c0.01-0.45,0.02-0.96,0.03-1.52
					c0.01-0.56,0.01-1.18,0.01-1.86v-4.8l-5.98-10.35c-0.42-0.69-0.76-1.19-1.03-1.49c-0.27-0.31-0.62-0.52-1.06-0.64l-1.54-0.48
					l-0.03-0.73c1.03,0.05,2.42,0.07,4.18,0.07c1.53,0,3.11-0.02,4.74-0.07l0.07,0.73l-1.6,0.44c-0.24,0.06-0.41,0.14-0.51,0.25
					c-0.1,0.11-0.15,0.24-0.15,0.4c0,0.24,0.09,0.53,0.26,0.87c0.18,0.35,0.39,0.74,0.65,1.2L301.41,393.84z"/>
				<path class="st0" d="M323.7,383.71c-1.19-0.4-2.28-0.59-3.28-0.59c-1.49,0-2.68,0.36-3.57,1.09c-0.89,0.72-1.33,1.73-1.33,3.02
					c0,0.74,0.16,1.38,0.47,1.93c0.31,0.55,0.73,1.04,1.26,1.46c0.53,0.42,1.12,0.79,1.79,1.12c0.67,0.33,1.36,0.65,2.07,0.97
					c0.78,0.34,1.54,0.7,2.27,1.08c0.74,0.38,1.4,0.82,1.99,1.33c0.59,0.51,1.07,1.12,1.43,1.83c0.36,0.71,0.54,1.54,0.54,2.5
					c0,2.25-0.88,3.97-2.64,5.16c-1.76,1.19-4.04,1.78-6.83,1.78c-1.8,0-3.79-0.31-5.98-0.92l-0.1-0.14l0.83-5.77l0.76-0.12
					l1.19,4.82c1.2,0.48,2.43,0.71,3.68,0.71c1.69,0,3-0.37,3.95-1.12s1.42-1.81,1.42-3.19c0-0.72-0.15-1.36-0.46-1.91
					c-0.3-0.55-0.72-1.02-1.23-1.42c-0.52-0.4-1.1-0.76-1.76-1.08c-0.66-0.32-1.33-0.64-2.04-0.96c-0.79-0.34-1.56-0.71-2.31-1.1
					c-0.75-0.4-1.42-0.86-2.03-1.38c-0.61-0.53-1.09-1.17-1.45-1.93c-0.36-0.76-0.54-1.66-0.54-2.67c0-2.05,0.86-3.63,2.57-4.75
					c1.71-1.12,3.84-1.68,6.37-1.68c1.79,0,3.66,0.21,5.62,0.63l0.12,0.12l-1,5.3l-0.68,0.12L323.7,383.71z"/>
				<path class="st0" d="M344.27,400.72c0,0.68,0,1.3,0.01,1.85c0,0.55,0.01,1.06,0.03,1.51c0.01,0.28,0.21,0.48,0.59,0.58
					l1.92,0.59l0.03,0.73c-1.46-0.03-2.86-0.05-4.21-0.05c-1.37,0-2.77,0.02-4.21,0.05l-0.07-0.73l2.09-0.63
					c0.28-0.08,0.44-0.25,0.46-0.53c0.01-0.45,0.02-0.96,0.03-1.52c0-0.56,0.01-1.18,0.01-1.86v-13.77c0-0.58,0-1.1-0.01-1.56
					c-0.01-0.46-0.01-0.88-0.03-1.26c-0.01-0.29-0.15-0.49-0.41-0.58l-2.1-0.66l-0.03-0.73c1.46,0.05,2.86,0.07,4.21,0.07
					c1.36,0,2.76-0.02,4.21-0.07l0.07,0.73l-2.1,0.63c-0.27,0.07-0.42,0.24-0.44,0.53c-0.01,0.4-0.02,0.83-0.03,1.3
					c-0.01,0.47-0.01,0.98-0.01,1.54V400.72z"/>
				<path class="st0" d="M372.01,382.17c1.06,0.05,2.03,0.07,2.89,0.07c0.84,0,1.96-0.02,3.38-0.07l0.07,0.73l-2.14,0.66
					c-0.26,0.09-0.4,0.28-0.41,0.58c-0.02,0.75-0.03,1.69-0.03,2.82v13.77c0,1.34,0.01,2.46,0.03,3.38
					c0.01,0.26,0.17,0.44,0.48,0.53l2.04,0.63l0.03,0.73c-1.49-0.03-2.92-0.05-4.29-0.05c-1.34,0-2.66,0.02-3.96,0.05l-0.07-0.73
					l1.95-0.59c0.27-0.08,0.41-0.28,0.42-0.59c0.02-0.89,0.03-2.01,0.03-3.34v-14.7l-8.42,19.91l-1.24,0.14l-8.47-20.05v14.7
					c0,1.34,0.01,2.45,0.03,3.34c0.01,0.32,0.16,0.51,0.44,0.59l1.9,0.59l0.03,0.73c-1.35-0.03-2.47-0.05-3.38-0.05
					c-0.88,0-2.05,0.02-3.51,0.05l-0.07-0.73l2.09-0.63c0.29-0.09,0.45-0.27,0.46-0.53c0.02-0.92,0.03-2.04,0.03-3.38v-13.77
					c0-1.13-0.01-2.07-0.03-2.82c-0.01-0.29-0.15-0.49-0.41-0.58l-2.1-0.66l-0.03-0.73c1.46,0.05,2.61,0.07,3.46,0.07
					c0.97,0,1.99-0.02,3.04-0.07l7.88,18.62L372.01,382.17z"/>
				<path class="st0" d="M387.56,400.72c0,0.68,0,1.29,0.01,1.83c0.01,0.54,0.01,1.03,0.03,1.46c0.01,0.26,0.16,0.44,0.44,0.53
					l2.34,0.71l0.03,0.73c-1.64-0.03-3.13-0.05-4.48-0.05c-1.37,0-2.77,0.02-4.21,0.05l-0.07-0.73l2.09-0.63
					c0.29-0.09,0.45-0.27,0.46-0.53c0.01-0.45,0.02-0.96,0.03-1.52c0.01-0.56,0.01-1.18,0.01-1.86v-13.77c0-0.58,0-1.1-0.01-1.56
					c-0.01-0.46-0.01-0.88-0.03-1.26c-0.01-0.29-0.15-0.49-0.41-0.58l-2.11-0.66l-0.03-0.73c1.46,0.05,2.88,0.07,4.27,0.07
					c0.94,0,1.84-0.02,2.71-0.07c0.87-0.05,1.67-0.07,2.39-0.07c2.68,0,4.71,0.52,6.08,1.57c1.37,1.05,2.06,2.61,2.06,4.68
					c0,2.43-0.79,4.32-2.38,5.67c-1.59,1.35-3.82,2.02-6.69,2.02c-0.79,0-1.63-0.05-2.54-0.15V400.72z M387.56,394.46
					c0.79,0.14,1.57,0.2,2.34,0.2c1.81,0,3.19-0.47,4.13-1.4c0.94-0.93,1.42-2.36,1.42-4.29c0-1.84-0.45-3.22-1.35-4.13
					c-0.9-0.9-2.32-1.36-4.25-1.36c-0.76,0-1.52,0.05-2.29,0.14V394.46z"/>
				<path class="st0" d="M407.1,400.72c0,0.68,0,1.29,0.01,1.83c0.01,0.54,0.01,1.04,0.03,1.48c0.01,0.35,0.16,0.57,0.44,0.66
					l1.88,0.56l0.05,0.73c-1.35-0.03-2.69-0.05-4.04-0.05c-1.37,0-2.77,0.02-4.21,0.05l-0.07-0.73l2.09-0.63
					c0.28-0.08,0.44-0.25,0.46-0.53c0.01-0.45,0.02-0.96,0.03-1.52c0.01-0.56,0.01-1.18,0.01-1.86v-13.77c0-0.58,0-1.1-0.01-1.56
					c-0.01-0.46-0.01-0.88-0.03-1.26c-0.01-0.29-0.15-0.49-0.41-0.58l-2.11-0.66l-0.03-0.73c1.46,0.05,2.89,0.07,4.28,0.07
					c0.27,0,0.62-0.01,1.05-0.03c0.42-0.02,0.94-0.04,1.54-0.06c0.62-0.02,1.13-0.04,1.54-0.05c0.41-0.01,0.74-0.02,0.98-0.02
					c2.61,0,4.56,0.49,5.87,1.46c1.3,0.97,1.96,2.39,1.96,4.26c0,1.69-0.45,3.05-1.34,4.1c-0.89,1.05-2.26,1.85-4.1,2.42
					c0.72,1.09,1.39,2.14,2,3.15c0.61,1.01,1.17,1.94,1.7,2.78c0.52,0.84,1,1.59,1.43,2.23c0.43,0.64,0.84,1.15,1.21,1.53
					c0.19,0.19,0.39,0.36,0.58,0.5c0.19,0.14,0.39,0.26,0.6,0.35c0.21,0.09,0.43,0.17,0.66,0.24c0.23,0.07,0.49,0.14,0.77,0.2
					l0.05,0.75c-0.82,0.1-1.5,0.15-2.05,0.15c-0.46,0-0.87-0.01-1.22-0.03c-0.35-0.02-0.67-0.07-0.94-0.14
					c-0.28-0.07-0.53-0.16-0.75-0.26c-0.22-0.11-0.45-0.25-0.66-0.42c-0.47-0.35-0.93-0.86-1.38-1.52
					c-0.45-0.66-0.92-1.41-1.41-2.25c-0.49-0.84-0.99-1.73-1.52-2.67c-0.53-0.94-1.08-1.87-1.67-2.78
					c-0.17-0.27-0.32-0.49-0.44-0.64c-0.12-0.16-0.25-0.28-0.4-0.37c-0.14-0.09-0.31-0.15-0.5-0.19c-0.19-0.03-0.43-0.06-0.73-0.07
					l-1.19-0.03V400.72z M407.1,393.56c0.69,0.03,1.33,0.05,1.92,0.05c1.96,0,3.39-0.42,4.3-1.25c0.91-0.83,1.37-2.14,1.37-3.91
					c0-1.72-0.44-2.98-1.31-3.77c-0.87-0.79-2.23-1.19-4.09-1.19c-0.32,0-0.66,0.01-1.02,0.03c-0.36,0.02-0.75,0.06-1.17,0.1V393.56
					z"/>
				<path class="st0" d="M446.72,393.54c0,3.92-1.11,7.07-3.33,9.45c-2.22,2.38-5.33,3.57-9.32,3.57c-3.79,0-6.72-1.1-8.8-3.3
					c-2.08-2.2-3.11-5.18-3.11-8.94c0-3.92,1.12-7.01,3.35-9.29c2.23-2.28,5.33-3.42,9.29-3.42c3.8,0,6.74,1.07,8.81,3.2
					C445.68,386.94,446.72,389.85,446.72,393.54z M425.87,393.76c0,3.69,0.75,6.52,2.24,8.48c1.49,1.96,3.68,2.95,6.57,2.95
					c2.84,0,4.94-0.89,6.29-2.67c1.35-1.78,2.03-4.58,2.03-8.39c0-3.58-0.72-6.33-2.16-8.25c-1.44-1.92-3.66-2.89-6.65-2.89
					c-2.91,0-5.02,0.89-6.34,2.67C426.53,387.44,425.87,390.14,425.87,393.76z"/>
				<path class="st0" d="M457.7,406.07l-7.57-20.47c-0.27-0.75-0.52-1.27-0.76-1.57c-0.23-0.3-0.58-0.52-1.04-0.65l-1.54-0.48
					l-0.03-0.73c1.12,0.05,2.43,0.07,3.94,0.07c1.53,0,3.11-0.02,4.74-0.07l0.07,0.73l-1.6,0.46c-0.23,0.06-0.39,0.14-0.49,0.25
					c-0.1,0.11-0.15,0.26-0.15,0.47c0,0.23,0.06,0.53,0.18,0.91c0.12,0.38,0.29,0.87,0.5,1.47l5.48,15.28l5.96-15.26
					c0.24-0.62,0.42-1.12,0.56-1.5c0.14-0.38,0.2-0.68,0.2-0.91c0-0.2-0.05-0.35-0.16-0.45c-0.11-0.1-0.27-0.17-0.48-0.23
					l-1.58-0.42l-0.03-0.78c1.23,0.05,2.48,0.07,3.73,0.07c1.26,0,2.46-0.02,3.62-0.07l0.07,0.73l-1.71,0.54
					c-0.4,0.11-0.7,0.3-0.9,0.57s-0.48,0.79-0.81,1.59l-8.47,20.34L457.7,406.07z"/>
				<path class="st0" d="M477.95,400.72c0,0.68,0,1.3,0.01,1.85c0.01,0.55,0.01,1.06,0.03,1.51c0.01,0.28,0.21,0.48,0.59,0.58
					l1.92,0.59l0.03,0.73c-1.46-0.03-2.86-0.05-4.21-0.05c-1.37,0-2.77,0.02-4.21,0.05l-0.07-0.73l2.09-0.63
					c0.28-0.08,0.44-0.25,0.46-0.53c0.01-0.45,0.02-0.96,0.03-1.52c0.01-0.56,0.01-1.18,0.01-1.86v-13.77c0-0.58,0-1.1-0.01-1.56
					c-0.01-0.46-0.01-0.88-0.03-1.26c-0.01-0.29-0.15-0.49-0.41-0.58l-2.11-0.66l-0.03-0.73c1.46,0.05,2.86,0.07,4.21,0.07
					c1.36,0,2.76-0.02,4.21-0.07l0.07,0.73l-2.11,0.63c-0.27,0.07-0.42,0.24-0.44,0.53c-0.01,0.4-0.02,0.83-0.03,1.3
					c-0.01,0.47-0.01,0.98-0.01,1.54V400.72z"/>
				<path class="st0" d="M487.99,387v13.72c0,1.34,0.01,2.44,0.03,3.33c0.01,0.32,0.15,0.51,0.42,0.58l2.02,0.59l0.03,0.76
					c-1.41-0.03-2.57-0.05-3.48-0.05c-0.88,0-2.05,0.02-3.51,0.05l-0.07-0.73l2.09-0.63c0.29-0.09,0.45-0.27,0.46-0.53
					c0.02-0.92,0.03-2.04,0.03-3.38v-13.77c0-1.13-0.01-2.07-0.03-2.82c-0.01-0.29-0.15-0.49-0.41-0.58l-2.11-0.66l-0.03-0.73
					c1.46,0.05,2.61,0.07,3.46,0.07c0.51,0,1.02-0.02,1.54-0.07l14.26,17.81v-13.09c0-1.1-0.01-2.04-0.03-2.83
					c-0.01-0.26-0.16-0.44-0.44-0.53l-2-0.58l-0.03-0.78c1.45,0.05,2.62,0.07,3.51,0.07c0.91,0,2.07-0.02,3.48-0.07l0.07,0.73
					l-2.14,0.66c-0.26,0.09-0.4,0.28-0.41,0.58c-0.02,0.75-0.03,1.69-0.03,2.82v18.98l-1.43,0.14L487.99,387z"/>
				<path class="st0" d="M528.37,388.09l-0.68,0.1l-1.17-4.45c-1.38-0.36-2.68-0.54-3.89-0.54c-2.83,0-5.04,0.96-6.62,2.88
					c-1.58,1.92-2.38,4.56-2.38,7.94c0,3.41,0.86,6.11,2.59,8.12c1.72,2.01,4.05,3.01,6.97,3.01c0.98,0,1.94-0.12,2.89-0.37v-4.53
					c0-0.57,0-1.08-0.01-1.54c-0.01-0.46-0.01-0.89-0.03-1.27c-0.01-0.29-0.15-0.48-0.41-0.56l-2.1-0.66l-0.03-0.73
					c1.46,0.03,2.86,0.05,4.2,0.05c1.36,0,2.68-0.02,3.95-0.05l0.09,0.73l-1.85,0.54c-0.27,0.09-0.42,0.27-0.44,0.53
					c-0.01,0.45-0.02,0.91-0.03,1.38c-0.01,0.47-0.01,0.98-0.01,1.52v5.43l-0.1,0.12c-2.31,0.55-4.43,0.83-6.37,0.83
					c-3.98,0-7.14-1.05-9.49-3.16c-2.35-2.11-3.53-5.04-3.53-8.81c0-4.01,1.22-7.14,3.67-9.41c2.44-2.27,5.78-3.4,10-3.4
					c1.82,0,3.73,0.23,5.74,0.7l0.1,0.14L528.37,388.09z"/>
			</g>
			<path class="st0" d="M411.51,319.77h-16.57c-10,0-18.1,8.1-18.1,18.1v2.58c0,10,8.1,18.1,18.1,18.1h16.57
				c10,0,18.1-8.1,18.1-18.1v-2.58C429.61,327.87,421.51,319.77,411.51,319.77z M397.12,327.07h12.23c5.54,0,10.19,3.73,11.62,8.8
				h-35.48C386.92,330.8,391.58,327.07,397.12,327.07z M409.34,351.25h-12.23c-5.54,0-10.19-3.73-11.62-8.8h35.48
				C419.54,347.52,414.88,351.25,409.34,351.25z"/>
			<path class="st0" d="M540.33,319.77h-9.23h-7.34c-10,0-18.1,8.1-18.1,18.1v2.58c0,10,8.1,18.1,18.1,18.1h16.57c0,0,0,0,0,0h6.2
				v-1.12v-6.19h-8.38h-5.83h-3.68h-2.72c-6.68,0-12.09-5.41-12.09-12.09c0-6.68,5.41-12.09,12.09-12.09h2.72h2.45h7.06h8.38v-6.19
				v-1.11H540.33z"/>
		</g>
	</g>
</g>
<g id="Capa_2">
</g>
</svg>
